<?xml version="1.0" encoding="utf-8"?>
<!-- Generator: Adobe Illustrator 18.0.0, SVG Export Plug-In . SVG Version: 6.00 Build 0)  -->
<!DOCTYPE svg PUBLIC "-//W3C//DTD SVG 1.1//EN" "http://www.w3.org/Graphics/SVG/1.1/DTD/svg11.dtd">
<svg version="1.1" xmlns="http://www.w3.org/2000/svg" xmlns:xlink="http://www.w3.org/1999/xlink" x="0px" y="0px"
	 viewBox="0 0 40 38" enable-background="new 0 0 40 38" xml:space="preserve">
<g id="Layer_1" display="none">
	<rect x="0" display="inline" fill="#FFFF00" width="40" height="38"/>
</g>
<g id="Controller" display="none">
	<g display="inline">
		<g>
			<path fill="#FFFFFF" d="M34.2,6.8c-0.5-0.1-1.2-0.2-1.7-0.2c-0.3-0.4-0.8-0.6-1.3-0.5L26,6.8C25.5,7,25.2,7.3,25,7.7
				c-1.8,0.2-4.2,0.2-5,0.2c-0.6,0-3,0-5-0.2C14.8,7.3,14.4,7,14,6.8L8.8,6.1C8.3,6,7.8,6.2,7.5,6.5C7,6.5,6.4,6.6,5.8,6.7
				c-3.2,0.8-8.6,14.6-4,22.1s8.7-0.2,11.5-4.2c1.8-2.6,5.3-2.8,6.5-2.8l0,0c0,0,0.1,0,0.2,0s0.2,0,0.2,0l0,0c1.2,0,4.6,0.3,6.5,2.8
				c2.8,4,6.8,11.5,11.5,4.2C42.8,21.5,37.5,7.6,34.2,6.8z M9.2,20.8c-2.8,0-5-2.3-5-5c0-2.8,2.3-5,5-5c2.8,0,5,2.3,5,5
				C14.3,18.6,12,20.8,9.2,20.8z M30.7,10.8c1,0,1.6,0.8,1.6,1.6c0,1-0.8,1.6-1.6,1.6c-1,0-1.6-0.8-1.6-1.6
				C29.1,11.6,29.8,10.8,30.7,10.8z M27.4,17.5c-1,0-1.6-0.8-1.6-1.6c0-1,0.8-1.6,1.6-1.6c1,0,1.6,0.8,1.6,1.6
				C29.1,16.8,28.3,17.5,27.4,17.5z M30.7,20.8c-1,0-1.6-0.8-1.6-1.6c0-1,0.8-1.6,1.6-1.6c1,0,1.6,0.8,1.6,1.6
				C32.4,20.1,31.6,20.8,30.7,20.8z M34,17.5c-1,0-1.6-0.8-1.6-1.6c0-1,0.8-1.6,1.6-1.6c1,0,1.6,0.8,1.6,1.6
				C35.7,16.8,35,17.5,34,17.5z M9.2,12C7.4,12,6,13.4,6,15.2s1.4,3.2,3.2,3.2s3.2-1.4,3.2-3.2S11.1,12,9.2,12z"/>
		</g>
	</g>
</g>
<g id="Newspaper" display="none">
	<g display="inline">
		<g>
			<path fill="#FFFFFF" d="M40,16.8l-2.2-2.5l0.8-3.2l-3-1.4L35,6.5h-3.3l-1.9-2.8l-3,1.3l-2.8-1.7l-2.3,2.5l-3.3-0.4l-1.1,3.1
				L14,9.3l0.3,3.3l-2.5,2c1.1,0,2.9,0,5,0c1.3-3.7,4.7-6.3,8.8-6.3c5.2,0,9.4,4.2,9.4,9.4c0,3.2-1.8,6-4.4,7.7c0,1.6,0,3.3,0,4.7
				l1.6-2.4l3.3-0.2l0.4-3.3l2.9-1.5l-1-3.1L40,16.8z M29.4,17.5c-0.2,0-0.2,0.2-0.2,0.4v13.6c0,1.1-1.3,2.4-2.4,2.4h-24
				c-1.1,0-1.9-0.8-1.9-1.8V17c0-0.1,0-0.4,0.4-0.4h23.1l0,0c0,0,0,0,0,0.1v14.4c0,1.1,0.9,1.9,1.9,1.9s1.8-0.9,1.8-1.8V17.4
				c0-0.2,0-0.4-0.2-0.4c-0.2,0-0.3,0.1-0.3,0.3v13.6c0,0.6-0.6,1-1.4,1c-0.6,0-1-0.2-1-1V16.4c0-0.3-0.2-1-1-1H1.4
				c-0.9,0-1.4,0.9-1.4,1.4v15.1c0,1.5,1.3,2.8,2.8,2.8h24c1.5,0,2.8-1.8,2.8-3.3V17.9C29.6,17.7,29.6,17.5,29.4,17.5z M26.4,32.9
				L26.4,32.9L26.4,32.9L26.4,32.9z M23.1,17.9H2.3v1.4H23v-1.4H23.1z M23.1,21.2h-6.1v1h6.1V21.2z M26.5,31.1
				c0.2,0,0.3-0.3,0.3-0.5V17c0-0.2-0.1-0.5-0.3-0.5c-0.2,0-0.2,0.3-0.2,0.5v13.6C26.4,30.8,26.3,31.1,26.5,31.1z M10.7,27.8
				c-0.1,0.6-1.6,0.3-0.9,0.8c0.8,0.4,2.4,0.2,2.8,1c0.4,0.6,0.8,1.5,0.9,2.2l0.1,0.2h1c0.3,0,1-0.5,1-1V22c0-0.3-0.5-1-1-1H3.2
				c-0.3,0-1,0.5-1,1V31c0,0.3,0.5,1,1,1h0.4c0-0.8,0.1-2.3,1-2.6c1.3-0.4,2.8-0.9,2.8-1.2c0-0.3-0.4-1.3-0.5-2.4
				c-0.1-1.1,0.6-1.9,1.1-2.3c0.4-0.2,1.6-0.2,2.2,0.3s0.8,0.6,0.6,1.9C10.9,27,10.8,27.1,10.7,27.8z M23.1,23h-6.1v1h6.1
				C23.1,24,23.1,23,23.1,23z M23.1,24.9h-6.1v1h6.1V24.9z M23.1,26.8h-6.1v1h6.1V26.8z M23.1,28.7h-6.1v1h6.1
				C23.1,29.6,23.1,28.7,23.1,28.7z"/>
		</g>
	</g>
</g>
<g id="Layer_4" display="none">
	<path display="inline" fill="#FFFFFF" d="M34.1,6.3c-0.9-0.1-6.1-0.8-9.5-2c-3.2-1.1-7.7-3.2-9-3.8c-0.2-0.1-0.4,0-0.4,0.2
		c0,0,0,0.2,0,0.6v8v16.4c-0.9-0.8-2.5-1.4-4.1-1.4c-2.9,0-5.4,1.8-5.4,4s2.5,4,5.4,4s5.4-1.8,5.4-4V10.1c1.8,0.8,4.9,2.4,7.5,3.2
		c2.8,0.8,6.8,1.5,8.8,1.9v15.8c-0.9-0.8-2.5-1.4-4.1-1.4c-2.9,0-5.4,1.8-5.4,4c0,2.2,2.5,4,5.4,4s5.4-1.8,5.4-4V15.4V6.5V6.4
		C34.3,6.5,34.3,6.4,34.1,6.3z"/>
</g>
<g id="Layer_5" display="none">
	<path display="inline" fill="#FFFFFF" d="M39.8,29c0.4-1.6,0-2.9-0.3-3.6c-12-3.2-17-2.8-20-2l10.2,4.5l0,0l8.9,1.6
		c-0.3,0.1,0-0.1,0,0c-0.4,0.7-1,1.6-2.7,1.2c-1.2-0.3-7.7-2-14.5-3.9c-8.2-2.2-17.6-4.7-19.7-5.3c-0.7-0.2-0.9-0.7-1.1-1.2
		c-0.3-1,0.7-2.2,1.4-3.4c0.2-0.4,0.5-0.5,0.7-0.8l15.7,6.8c3-1,7.7-1.7,20.1,1.5c-1-0.8-3.2-2.5-5.6-4.4c0.3-0.5,0.2-1.2-0.3-1.6
		c-0.2-0.2-0.4-0.3-0.6-0.4c-0.4-0.1-0.9,0-1.2,0.3c-0.3-0.2-0.5-0.4-0.8-0.7c0.3-0.5,0.2-1.2-0.3-1.7c-0.2-0.2-0.4-0.3-0.6-0.4
		c-0.4-0.1-0.9,0-1.2,0.3c-0.3-0.3-0.5-0.6-0.8-0.8c0.3-0.5,0.2-1.2-0.3-1.6c-0.2-0.2-0.4-0.3-0.6-0.4c-0.2-0.1-0.4-0.1-0.6,0
		c-0.3-0.5-0.6-0.9-0.9-1.4c-1.2-1.9-2.3-3.5-3.7-3.9c-0.9-0.2-2.1,0.6-2.8,1.4c-0.7,0.7-1,1.5-0.9,2.1c-1,0.2-2.2,0.2-3.4-0.1
		c-3.2-0.8-3.9-2.2-5-4.1C8.3,6,7.4,6,7,6.3c-2.7,2.1-4.5,6.6-5.1,9.2c-0.6,0.8-2.4,3.6-1.8,5.4c0.2,0.7,0.6,1.3,1.5,1.6
		c2.1,0.6,11.5,3,19.7,5.3c6.7,1.8,13.4,3.6,14.5,3.9c2.3,0.6,3.5-1.2,3.8-2.3L39.8,29L39.8,29z M32,18.8c0.1,0,0.2,0.1,0.3,0.2
		c0.3,0.3,0.3,0.7,0.1,1l-0.9,1c-0.2,0.2-0.7,0.2-1,0c-0.3-0.3-0.3-0.7-0.1-1l0.9-1C31.5,18.8,31.8,18.7,32,18.8z M29.1,16.4
		c0.1,0,0.2,0.1,0.3,0.2c0.3,0.3,0.3,0.7,0.1,1l-0.9,1c-0.2,0.2-0.7,0.2-1,0c-0.3-0.3-0.3-0.7-0.1-1l0.9-1
		C28.6,16.3,28.8,16.3,29.1,16.4z M26.5,14c0.3,0.3,0.3,0.7,0.1,1l-0.9,1c-0.2,0.2-0.7,0.2-1,0c-0.3-0.3-0.3-0.7-0.1-1l0.9-1
		c0.2-0.2,0.4-0.2,0.6-0.2C26.3,13.8,26.4,13.9,26.5,14z M18.8,9.7c0.7-0.8,1.7-1.3,2.2-1.2c1.2,0.3,2.2,1.9,3.3,3.6
		c0.3,0.4,0.6,0.9,0.9,1.3c0,0,0,0-0.1,0L25,13.5c-1.5-1.3-2.7-2.3-3.2-2.9c-0.6-0.7-1.5-0.6-2.4-0.1c-0.4,0.2-0.9,0.4-1.4,0.6
		C18,10.8,18.3,10.2,18.8,9.7z M16.8,14.7c2.2,0,3.2,0.2,4.1,1c1,0.8,1.3,2.1,0.8,3.1c-0.5,1.1-1.9,1.9-3.7,1.4
		c-5-1.3-3.9-4.5-3.9-4.5s1.2,2.6,3.3,2.7c0.9,0.1,1.8-0.8,1.1-1.7c-0.7-0.9-3.2-0.7-4.4-2.3c-0.7-1-0.4-2.2-0.4-2.2
		C13.8,12.3,14.5,14.8,16.8,14.7z"/>
</g>
<g id="Layer_6" display="none">
	<g display="inline">
		<g>
			<path fill="#FFFFFF" d="M20,5.2L0,15.1l7.3,3.7v-1.9c0,0,4.5-4,12.7-4s12.2,4,12.2,4V19l3-1.5v-4.7L20,5.2z M36,13.2v4l4-1.9
				L36,13.2z M36.5,23.8c0.3-0.2,0.4-0.6,0.4-1c0-0.5-0.4-1.1-0.9-1.3v-4.4l-0.8,0.4v4.1c-0.5,0.2-0.9,0.6-0.9,1.2
				c0,0.4,0.2,0.8,0.4,1c-1,1.1-1.1,3.8-1.2,3.9l0,0l0,0l0,0l0,0l0,0c0,0.2,0.9,0.4,1.9,0.4c1.1,0,1.9-0.2,1.9-0.4l0,0l0,0l0,0l0,0
				C37.5,27.6,37.4,24.9,36.5,23.8z M22.1,24.8c-0.8-0.1-1.6,0.8-2.4,0.8c-0.9,0-1.7-0.8-2.5-0.6c-4.8,0.4-8.4,1.9-8.6,3.8v0.1
				c0,2.3,4.9,4,11.1,4s11.1-1.8,11.1-4v-0.1C30.6,26.7,27,25.2,22.1,24.8z M8.7,17.8v1.6v7.2c1.2-1.4,4.4-2.5,8.5-2.8
				c0.9-0.1,1.6,0.8,2.5,0.8s1.7-0.8,2.5-0.8c4.2,0.3,7.5,1.5,8.6,3v-7.1v-1.8c0,0-3.5-3.5-10.9-3.5C12.7,14.3,8.7,17.8,8.7,17.8z"
				/>
		</g>
	</g>
</g>
<g id="Layer_7" display="none">
	<path display="inline" fill="#FFFFFF" d="M36.8,11.6c-1.5,1.5-3.2,2.1-5,2.1c-0.2,0-1.1,0.1-2.1,0.3c-1.2,0.2-1.9,1.2-1.9,1.2
		L16.4,26.6c0,0-0.9,0.7-1.2,1.9c-0.2,1.1-0.3,2-0.3,2.2c0,1.8-0.7,3.7-2.1,5.1c-1.7,1.7-3.8,2.4-5.9,2l2.8-4.3l-0.1-1.8l-2-1.7H5.3
		l-3.1,4.5c-1.5-2.6-1-5.9,1.2-8.3c1.3-1.5,3.2-2.1,5-2.1c0.2,0,1.1-0.1,2.1-0.3c1.2-0.2,1.9-1.2,1.9-1.2l11.3-11.3
		c0,0,0.9-0.7,1.2-1.9c0.2-1.1,0.3-2,0.3-2.2c0-1.8,0.7-3.7,2.1-5.1c1.7-1.7,3.8-2.4,5.9-2l-2.8,4.3l0.1,1.8l1.9,1.5h2.1l3.1-4.5
		C39.5,5.9,39,9.4,36.8,11.6z M20.7,13.2L17,16.9c-0.2-0.4-0.3-0.7-0.4-1c-1.1-2.1-3.7-5.3-3.7-5.3s-1.2-1.2-2.6-1.3
		c-1.3-0.1-2.7,1.1-2.7,1.7c0,0.4,0.3,0.9,0.3,0.9L5.7,14l-1.5-0.1l-3-3V9.2c0,0,2.1-1.2,2.8-1.8s0.1-1,1.9-3.1
		c2-2.4,3.2-3.6,7.5-3.9C18.3-0.1,20.7,2,20.7,2h-1l0.8,0.9c0,0-1.9-1-3.7-1c-1.8-0.1-2.9,0.6-3.6,1.8c-0.6,1,0.2,2.2,1.2,3.6
		C15.1,8.3,17.1,9.7,20.7,13.2z M34.2,28.5c1,1.5,1.9,2.4,2.7,3c0.8,0.7,1,1,1,1s-0.4,1.9-2.4,3.8c-2,1.9-3.6,1-3.6,1l-1-0.6
		c0,0-0.1-2.9-0.6-4.3c-0.6-1.2-3.4-2.9-6.3-6.3c-0.9-1-1.9-2.2-2.8-3.5l4.5-4.5C30.7,23.9,33.2,27.2,34.2,28.5z"/>
</g>
<g id="Layer_8" display="none">
	<path display="inline" fill="#FFFFFF" d="M35.9,17.9c-0.9,0-1.7,0.3-2.5,0.8c0-0.3-0.1-0.5-0.2-0.8c-1.1-2-6-3.7-12.4-4.2
		c0.8-0.9,1.8-2.6,1.8-5c0-3.8-2.7-4.1-2.7-8c0,0-1.9,4.7,0,7.7c1.3,1.9,0.9,4.1,0.4,5.3c-0.3,0-0.6,0-1-0.1c0-0.4,0.1-0.9,0.1-1.3
		c0-5.4-3.8-5.8-3.8-11.5c0,0-2.8,6.9,0,10.9c0.4,0.6,0.6,1.2,0.9,1.8c-0.4,0-1,0-1.4,0c-0.8-2-2.3-2.9-2.3-5.9c0,0-1.3,3.3-0.6,6
		c-6.3,0.5-11,2.2-12.1,4.1C0.1,18,0,18.2,0,18.6v1.9c0,9.3,7.5,16.7,16.7,16.7c7.9,0,14.4-5.4,16.3-12.6c0.8,0.8,1.7,1.3,2.9,1.3
		c2.3,0,4.1-1.8,4.1-4.1C40,19.8,38.2,17.9,35.9,17.9z M31.8,19.5L31.8,19.5L31.8,19.5C31.1,22,24.6,24,16.7,24S2.4,22.1,1.6,19.6
		l0,0l0,0l0,0l0,0l0,0v-0.1c0.5-1.9,5.1-3.7,11.2-4.1v0.1c1.9,2.8,0,6.1,0,6.1s2.7-1.9,2.7-5.7c0-0.2,0-0.4,0-0.6c0.4,0,0.8,0,1.2,0
		h0.1c0.3,2.9-1.2,5.5-1.2,5.5s2.5-1.8,3.5-5.5C25.9,15.5,31.2,17.3,31.8,19.5C31.8,19.4,31.8,19.4,31.8,19.5
		C31.8,19.4,31.8,19.4,31.8,19.5C31.8,19.4,31.8,19.4,31.8,19.5C31.8,19.4,31.8,19.4,31.8,19.5z M35.9,24.4c-1.3,0-2.4-1.1-2.4-2.4
		c0-1.3,1.1-2.4,2.4-2.4s2.4,1.1,2.4,2.4C38.3,23.3,37.2,24.4,35.9,24.4z"/>
</g>
<g id="Layer_9" display="none">
	<g display="inline">
		<g>
			<path fill="#FFFFFF" d="M12.8,22.9l2.8,2.8l10.1-10.1l2.4,2.4l5.7-5.7l-1.4-1.4L28,15.1l-2.4-2.4L15.5,22.9l-2.8-2.8l-6.4,6.4
				l1.4,1.4L12.8,22.9z M40,6.8V3H0v3.8h2.6v24.5H0V35h40v-3.8h-2.6V6.8H40L40,6.8z M36.3,31.4H3.7V6.9h32.6V31.4z"/>
		</g>
	</g>
</g>
<g id="Layer_10" display="none">
	<g display="inline">
		<g>
			<path fill="#FFFFFF" d="M13.8,10.3l1.8-3.6H12l1.4,2.8L13.8,10.3z M26.6,9.4L28,6.6h-3.6l1.8,3.6L26.6,9.4z M19.6,21l0.1,0.2v0.3
				l0,0c0.1,0,0.2,0,0.3,0c0.1,0,0.2,0,0.3,0l0,0v-0.3l0.1-0.2l5.2-9.5L20,0l-5.6,11.5L19.6,21z M39.9,14.5l-8.6-1.3l-6,11
				c0.9,1.2,1.4,2.6,1.4,4.1c0,2.1-1.1,4.1-2.6,5.4l8.1,4.3L30,24.2L39.9,14.5z M13.3,28.3c0-1.5,0.5-2.9,1.4-4.1l-6-10.9l-8.6,1.3
				l10,9.7L7.7,38l8.1-4.3C14.3,32.3,13.3,30.4,13.3,28.3z M18.6,21.6v-0.1l-8-14.9H9.2V12l6.1,11.3C16.3,22.5,17.4,21.8,18.6,21.6z
				 M21.4,21.6c1.3,0.2,2.4,0.9,3.3,1.7L30.8,12V6.6h-1.4l-8,14.9V21.6z M20,22.8c-3,0-5.4,2.5-5.4,5.4c0,3,2.5,5.4,5.4,5.4
				s5.4-2.5,5.4-5.4S23,22.8,20,22.8z"/>
		</g>
	</g>
</g>
<g id="Layer_11" display="none">
	<g display="inline">
		<g>
			<path fill="#FFFFFF" d="M29.7,11.6H32c0,0-7.4-9.6-7.7-9.9c-0.3-0.3-0.9-0.5-1.3-0.1c-0.3,0.3-0.5,0.9-0.1,1.3
				C23.3,3.1,29.7,11.6,29.7,11.6z M17.1,2.7c0.3-0.3,0.2-0.9-0.1-1.3c-0.3-0.3-0.9-0.2-1.3,0.1C15.3,1.9,8,11.5,8,11.5h2.3
				C10.3,11.6,16.7,3.1,17.1,2.7z M36.8,19.6c-0.5,0-33.2,0-34,0c-0.9,0-0.8,0-1,0.1c-0.1,0.2,0.1,1,0.1,1l3.9,13.4c0,0,0.2,1,1,1.7
				c1,1,2.2,0.9,2.2,0.9h21.4c0,0,1,0.1,2.2-0.8c0.8-0.7,1-1.7,1-1.7l3.9-13.3c0,0,0.3-0.8,0.1-1C37.5,19.6,37.5,19.6,36.8,19.6z
				 M9.9,33.4c-1.3,0-1.5-1-1.5-1l-2.5-8.5c0,0-0.5-1.5,1.2-1.5c1.4,0,1.6,1.5,1.6,1.5l2.3,8.5C11.1,32.4,11.1,33.4,9.9,33.4z
				 M14.9,33.4c-1.3,0-1.5-1-1.5-1l-1-8.5c0,0-0.3-1.5,1.4-1.5c1.4,0,1.5,1.5,1.5,1.5l0.8,8.5C16,32.4,16.1,33.4,14.9,33.4z
				 M21.3,32.1c0,0-0.1,1.2-1.3,1.2c-1.3,0-1.3-1.2-1.3-1.2l-0.1-8.3c0,0,0-1.5,1.5-1.5c1.5,0,1.5,1.5,1.5,1.5L21.3,32.1z
				 M27.6,23.8l-1,8.5c0,0-0.2,1-1.5,1c-1.3,0-1.2-1-1.2-1l0.8-8.5c0,0,0.1-1.5,1.5-1.5C27.9,22.3,27.6,23.8,27.6,23.8z M34,23.8
				l-2.4,8.5c0,0-0.2,1-1.5,1s-1.2-1-1.2-1l2.3-8.5c0,0,0.2-1.5,1.6-1.5C34.5,22.3,34,23.8,34,23.8z M38.8,12.8H1.2
				c-0.7,0-1.2,0.6-1.2,1.2v3.2c0,0.7,0.6,1.2,1.2,1.2h37.7c0.7,0,1.2-0.6,1.2-1.2v-3.2C40,13.3,39.5,12.8,38.8,12.8z"/>
		</g>
	</g>
</g>
<g id="Layer_12" display="none">
	<g display="inline">
		<g>
			<path fill="#FFFFFF" d="M19.9,12.1c-0.1,0-0.3,0.1-0.3,0.3c0,0.1,0.1,0.3,0.3,0.3c2.4,0,4.4,1.9,4.4,4.4c0,0.1,0.1,0.3,0.3,0.3
				c0.1,0,0.3-0.1,0.3-0.3C24.9,14.4,22.6,12.1,19.9,12.1z M19.9,7.5c-5.2,0-9.4,4.2-9.4,9.5c0,5.3,4.2,9.5,9.4,9.5s9.4-4.2,9.4-9.5
				C29.3,11.8,25.1,7.5,19.9,7.5z M19.9,23.4c-3.6,0-6.4-2.9-6.4-6.4s2.9-6.4,6.4-6.4s6.4,2.9,6.4,6.4S23.5,23.4,19.9,23.4z
				 M36.3,4.5H25.8c-0.6-1.5-1.4-4.1-1.7-4.1h-8.3c-0.3,0-1.1,2.6-1.7,4.1H3.6C1.7,4.5,0,6.2,0,8.2v18.9c0,1.9,1.6,3.3,3.6,3.3h14.1
				L14,36.5l1,0.7l4.4-6.6v7.1h1.1v-7.2l4.2,6.6l1-0.7l-3.4-6.1h14.1c1.8,0,3.6-1.5,3.6-3.3V8.1C39.9,6.2,38.3,4.5,36.3,4.5z
				 M10,26.3c-0.6,0-1.1-0.6-1.1-1.1c0-0.6,0.6-1.1,1.1-1.1s1.1,0.6,1.1,1.1C11.1,25.7,10.5,26.3,10,26.3z M19.9,27.3
				c-5.6,0-10.2-4.6-10.2-10.2S14.3,6.9,19.9,6.9s10.2,4.6,10.2,10.2S25.6,27.3,19.9,27.3z M36.3,9.8c0,0.3-0.2,0.6-0.6,0.6h-4.1
				c-0.3,0-0.6-0.3-0.6-0.6V8.1c0-0.3,0.2-0.6,0.6-0.6h4.1c0.3,0,0.6,0.2,0.6,0.6V9.8z"/>
		</g>
	</g>
</g>
<g id="Layer_13" display="none">
	<g display="inline">
		<g>
			<path fill="#FFFFFF" d="M4.9,29.5l-2.7,5c0.2-0.1,0.6-0.2,1.1,0.3c0.6,0.4,0.6,1,0.4,1.2l4.9-2.7c0-0.4,0-2-1-2.9
				C6.9,29.7,5.4,29.5,4.9,29.5z M2.8,35.6c-0.4-0.4-0.8-0.4-0.9-0.4l-1.4,2.8l2.9-1.6C3.4,36.2,3.3,35.9,2.8,35.6z M26.4,12
				c-1.6-1.4-3.2-1.1-3.2-1.1l-2.9,2.9c0,0,1.9-0.2,3.2,1.1c1.3,1.3,1.1,3.2,1.1,3.2l0,0l2.8-2.8C27.4,15.3,28,13.4,26.4,12z
				 M39.2,6l-1-1L37,6.2c0,0,0.3,0.1,0,0.4c-0.2,0.3-6.7,7.3-8.2,9l-0.3-1.3l9.8-9.8c0,0,0.7-2-0.8-3.4C36-0.4,34,0.3,34,0.3
				l-1.4,1.4c0,0,1.9-0.2,3.2,1.1c1.3,1.3,1.1,3.2,1.1,3.2l-0.7,0.7c0,0,0.6-1.9-1-3.3C33.6,2,32,2.3,32,2.3l-5.5,5.5l-1.7-5.9
				l-2.6,0.8l-0.4-1.8c-0.1-0.6-0.8-1-1.3-0.8c-0.6,0.1-1,0.8-0.8,1.3l0.4,1.9l-1.2,0.3L18.5,2c-0.1-0.6-0.8-1-1.3-0.8
				c-0.6,0.1-1,0.8-0.8,1.3l0.4,1.8l-1.2,0.3l-0.4-1.6c-0.1-0.6-0.8-1-1.3-0.8c-0.6,0.1-1,0.8-0.8,1.3l0.4,1.7l-1.2,0.3l-0.4-1.4
				c-0.1-0.6-0.8-1-1.3-0.8c-0.6,0.1-1,0.8-0.8,1.3l0.4,1.6L8.9,6.6L8.6,5.3c-0.1-0.6-0.8-1-1.3-0.8c-0.6,0.1-1,0.8-0.8,1.3l0.3,1.4
				L4.3,8.1l4.9,17.4l-3.2,3.2c0.4,0,2,0.1,3.2,1.1c1.2,1,1.2,2.7,1.1,3.1l0.8-0.8l1.7,5.9l20.9-6.8l-4.1-14.4l10-10L39.2,6z
				 M20.4,0.5l1.6,6c-0.3,0.1-0.7-0.1-0.7-0.4l-1.3-4.9C19.9,0.9,20.1,0.6,20.4,0.5z M17.1,1.6l1.6,6c-0.3,0.1-0.7-0.1-0.7-0.4
				l-1.3-4.9C16.5,2.1,16.7,1.7,17.1,1.6z M13.6,2.8l1.6,6c-0.3,0.1-0.6-0.1-0.7-0.4l-1.3-4.9C13.2,3.2,13.3,2.8,13.6,2.8z M10.3,4
				l1.6,6c-0.3,0.1-0.7-0.1-0.7-0.4L9.8,4.6C9.7,4.3,9.9,4,10.3,4z M6.8,5.1l1.6,6C8,11.2,7.7,11,7.7,10.6L6.4,5.7
				C6.4,5.4,6.5,5.2,6.8,5.1z M30.7,26.7c-0.2,0.1-0.4,0.2-0.9,0.4c-1.7,0.6-3-0.2-3-0.2s0.3,1.3-0.1,3c-0.2,1.2-0.7,1.9-1,2.2
				L13,36.2l-1.4-5.1l12.6-12.5c0,0,0.6-1.9-1-3.3c-1.6-1.4-3.2-1.1-3.2-1.1l0.2-0.2L9.6,24.5L5.1,9.1l1.4-0.4l0.6,2.2
				c0.1,0.6,0.8,1,1.3,0.8c0.6-0.1,1-0.8,0.8-1.3L8.7,7.8l1.2-0.3l0.6,2.1c0.1,0.6,0.8,1,1.3,0.8c0.6-0.1,1-0.8,0.8-1.3L12,6.8
				l1.2-0.3l0.6,2c0.1,0.6,0.8,1,1.3,0.8c0.6-0.1,1-0.8,0.8-1.3l-0.6-2.1l1.2-0.3l0.6,1.9c0.1,0.6,0.8,1,1.3,0.8
				c0.6-0.1,1-0.8,0.8-1.3l-0.6-2l1.2-0.3l0.4,1.8c0.1,0.6,0.8,1,1.3,0.8c0.6-0.1,1-0.8,0.8-1.3l-0.6-1.9l1.4-0.4L25,8.6l-1.8,1.8
				c0,0,1.9-0.2,3.2,1.1c1.3,1.3,1.1,3.2,1.1,3.2l-0.7,0.7l0.2,0.8c-0.3,0-0.7,0.2-0.9,0.6c-1,1.3,0.3,2.2,0.3,2.2l1-1L30.7,26.7z"
				/>
		</g>
	</g>
</g>
<g id="Layer_14" display="none">
	<g display="inline">
		<g>
			<path fill="#FFFFFF" d="M25,15.4c4,0,7.9,1.2,10.5,3c0.8-1.4,1.3-3,1.3-4.6C36.8,6.7,28.6,1,18.4,1S0,6.7,0,13.8
				c0,3.4,1.8,6.4,4.9,8.7c-0.2,0.7-0.5,1.5-0.9,2.2c-0.9,1.3-3.8,1.5-3.8,1.5s3.1,1,6.1,0.6c1.3-0.2,2.4-0.6,3.5-0.9
				C10.2,20,16.8,15.4,25,15.4z M36.6,34.9c-0.5-0.7-0.8-1.7-0.9-2.3c2.1-1.7,3.4-3.9,3.4-6.4c0-5.4-6.2-9.7-14.1-9.7
				c-7.7,0-14.1,4.4-14.1,9.7c0,5.4,6.2,9.7,14.1,9.7c2.2,0,4.3-0.3,6.1-0.9c0.3,0.3,1.5,1.3,3.4,1.7c2.5,0.6,5.5-0.2,5.5-0.2
				S37.3,35.9,36.6,34.9z"/>
		</g>
	</g>
</g>
<g id="Layer_15" display="none">
	<g display="inline">
		<g>
			<path fill="#FFFFFF" d="M32.2,4.1l-2.3,0.7l-0.7-2.3l-6.1,1.8l-0.7-2.8l-2.3,0.7L19.4,0L0,5.7L0.1,6l0,0
				c0.7,2.4,7.1,26.2,7.8,27.7c0.7,1.6,2.9,1.7,2.9,1.7l6-2c0.5,1.5,0.8,2.6,0.9,2.9c0.7,1.6,2.9,1.7,2.9,1.7L40,31.7L32.2,4.1z
				 M3.8,7.1C2.2,7.3,1.5,6.5,1.5,6.5l17.3-5.2l0.3,1.1L3.8,7.1z M28.6,3.9L29,5.1L13.6,9.6c-1.6,0.2-2.3-0.6-2.3-0.6L28.6,3.9z
				 M18.3,34.7c-0.7-2.1-7-24.3-7-24.3s0.6,0.5,1.3,0.6c0.5,0.1,0.8,0,0.8,0l7,25.4C20.2,36.3,18.9,36.2,18.3,34.7z M14.3,10.8
				l17.3-5.2l7.2,25.1l-17.3,5.7L14.3,10.8z M28.7,12.3l-8.4,2.6l0.5,1.5l8.4-2.6L28.7,12.3z M21.1,17.5l0.5,1.5l8.4-2.6l-0.5-1.5
				L21.1,17.5z"/>
		</g>
	</g>
</g>
<g id="Layer_16" display="none">
	<g display="inline">
		<g>
			<path fill="#FFFFFF" d="M39.4,0c-0.8,0-2.8,0.6-4.5,1.3c-2.2,1-3.5,2.1-3.5,2.1l-3.9,3.9c-0.3,0.2-0.7,0.4-1.1,0.8l-3.7-0.2
				c1.1-1,1.5-1.8,1.5-1.8s0-0.9-0.9-1.7c-0.9-0.8-1.6-1.1-1.6-1.1S21,3.5,19,5.8c-0.3,0.3-0.7,0.8-0.9,1.2L5.7,3L3.6,4l5.8,3.6
				C8.7,8.3,8,9.2,8.3,9.3c0.1,0.1,1.3-0.4,2.1-1.1l3.2,1.9c-0.9,0.7-1.6,1.8-1.5,1.9c0.1,0.1,1.5-0.4,2.1-1.1l0.1-0.1l1.7,1.5
				l1.2,1.5c-0.1,0.1-0.2,0.1-0.3,0.2c-0.9,0.7-1.7,1.8-1.5,2c0.1,0.1,1.5-0.4,2.1-1.1c0.1-0.1,0.2-0.2,0.2-0.3l0.9,1
				c-0.4,0.6-0.9,1.1-1.2,1.7l-6.5,6.4c0,0-0.3,0.3-0.8,1L0.6,25v0.7l7.7,3.4c-0.2,0.7-0.4,1.2-0.6,1.7l0,0c0,0-0.1,0.2,0,0.3
				c0.1,0.1,0.3,0,0.3,0l0,0c0.4-0.1,1-0.2,1.7-0.6l3.5,7.5h0.7l0.6-9.6c0.8-0.4,1.1-0.8,1.1-0.8l6.5-6.4c0.6-0.3,1.1-0.7,1.7-1.1
				l1.1,0.9c-0.1,0.1-0.2,0.2-0.3,0.2c-0.7,0.7-1.3,2-1.1,2.1c0.2,0.1,1.3-0.7,2-1.5c0.1-0.1,0.1-0.2,0.2-0.2l1.5,1.2l1.5,1.7
				l-0.1,0.1c-0.7,0.7-1.3,2-1.1,2.1c0.2,0.1,1.2-0.6,2-1.5l2,3.1c-0.7,0.7-1.2,2-1.1,2.1c0.1,0.1,1-0.4,1.7-1.1l3.7,5.7l1-2.1
				l-4.2-12c0.4-0.2,0.8-0.6,1.2-0.9c2.5-2,2.6-2.8,2.6-2.8s-0.2-0.8-1.1-1.6C34.2,15,33.3,15,33.3,15s-0.7,0.4-1.8,1.5l-0.2-3.7
				c0.3-0.3,0.6-0.8,0.8-1.1L36,7.7c0,0,1.1-1.3,2.1-3.5C38.9,2.8,39.3,0.8,39.4,0L18.2,20.9L39.4,0z"/>
		</g>
	</g>
</g>
<g id="Layer_17">
	<g>
		<path fill="#FFFFFF" d="M1,38h38l-7-15.5h-4.9c2.4-3.7,4.4-7.8,4.4-10.5c0-6.7-5.1-12-11.6-12C13.6,0,8.4,5.3,8.4,12
			c0,2.8,2,6.9,4.4,10.5H8.7L1,38z M20.1,3.4c4,0,7.2,3.4,7.2,7.5s-3.2,7.5-7.2,7.5c-2,0-3.9-0.9-5.2-2.3c-1.2-1.3-2-3.2-2-5.2
			C12.9,6.8,16.1,3.4,20.1,3.4z M14.1,24.3c3,4.3,5.9,7.9,5.9,7.9s3-3.5,5.9-7.9h5l5.4,12H3.8l5.9-12H14.1L14.1,24.3z"/>
		<polygon fill="#FFFFFF" points="18.8,9.6 14.8,16.1 21.3,12.1 25.3,5.6 		"/>
	</g>
</g>
</svg>
