<?xml version="1.0" encoding="utf-8"?>
<!-- Generator: Adobe Illustrator 18.0.0, SVG Export Plug-In . SVG Version: 6.00 Build 0)  -->
<!DOCTYPE svg PUBLIC "-//W3C//DTD SVG 1.1//EN" "http://www.w3.org/Graphics/SVG/1.1/DTD/svg11.dtd">
<svg version="1.1" xmlns="http://www.w3.org/2000/svg" xmlns:xlink="http://www.w3.org/1999/xlink" x="0px" y="0px"
	 viewBox="0 0 40 608" enable-background="new 0 0 40 608" xml:space="preserve">
<g id="Layer_3" display="none">
	<rect display="inline" fill="#00FF00" width="40" height="38"/>
	<rect y="38" display="inline" fill="#00FF00" width="40" height="38"/>
	<rect y="76" display="inline" fill="#00FF00" width="40" height="38"/>
	<rect y="114" display="inline" fill="#00FF00" width="40" height="38"/>
	<rect y="152" display="inline" fill="#00FF00" width="40" height="38"/>
	<rect y="190" display="inline" fill="#00FF00" width="40" height="38"/>
	<rect y="228" display="inline" fill="#00FF00" width="40" height="38"/>
	<rect x="0" y="266" display="inline" fill="#00FF00" width="40" height="38"/>
	<rect y="304" display="inline" fill="#00FF00" width="40" height="38"/>
	<rect y="342" display="inline" fill="#00FF00" width="40" height="38"/>
	<rect y="380" display="inline" fill="#00FF00" width="40" height="38"/>
	<rect y="418" display="inline" fill="#00FF00" width="40" height="38"/>
	<rect y="456" display="inline" fill="#00FF00" width="40" height="38"/>
	<rect y="494" display="inline" fill="#00FF00" width="40" height="38"/>
	<rect y="532" display="inline" fill="#00FF00" width="40" height="38"/>
	<rect y="570" display="inline" fill="#00FF00" width="40" height="38"/>
</g>
<g id="Layer_1">
	<g>
		<g>
			<path fill="#FFFFFF" d="M33.3,7.7c-0.5-0.1-1.1-0.2-1.6-0.2C31.4,7.1,31,6.9,30.5,7l-4.8,0.7c-0.5,0.1-0.8,0.4-1,0.8
				c-1.7,0.2-3.9,0.2-4.6,0.2c-0.6,0-2.8,0-4.6-0.2c-0.2-0.4-0.6-0.7-1-0.8L9.7,7C9.2,6.9,8.8,7.1,8.5,7.4c-0.5,0-1,0.1-1.6,0.2
				c-3,0.7-8,13.6-3.7,20.5c4.3,6.9,8.1-0.2,10.7-3.9c1.7-2.4,4.9-2.6,6-2.6v0c0,0,0.1,0,0.2,0c0.1,0,0.2,0,0.2,0v0
				c1.1,0,4.3,0.3,6,2.6c2.6,3.7,6.3,10.7,10.7,3.9C41.3,21.3,36.3,8.4,33.3,7.7z M10.1,20.7c-2.6,0-4.6-2.1-4.6-4.6
				c0-2.6,2.1-4.6,4.6-4.6c2.6,0,4.6,2.1,4.6,4.6C14.8,18.6,12.7,20.7,10.1,20.7z M30,11.4c0.9,0,1.5,0.7,1.5,1.5
				c0,0.9-0.7,1.5-1.5,1.5c-0.9,0-1.5-0.7-1.5-1.5C28.5,12.1,29.2,11.4,30,11.4z M27,17.6c-0.9,0-1.5-0.7-1.5-1.5
				c0-0.9,0.7-1.5,1.5-1.5c0.9,0,1.5,0.7,1.5,1.5C28.5,16.9,27.8,17.6,27,17.6z M30,20.7c-0.9,0-1.5-0.7-1.5-1.5
				c0-0.9,0.7-1.5,1.5-1.5c0.9,0,1.5,0.7,1.5,1.5C31.6,20,30.9,20.7,30,20.7z M33.1,17.6c-0.9,0-1.5-0.7-1.5-1.5
				c0-0.9,0.7-1.5,1.5-1.5c0.9,0,1.5,0.7,1.5,1.5C34.7,16.9,34,17.6,33.1,17.6z M10.1,12.5c-1.7,0-3,1.3-3,3c0,1.7,1.3,3,3,3
				c1.7,0,3-1.3,3-3C13.1,13.8,11.8,12.5,10.1,12.5z"/>
		</g>
	</g>
	<g>
		<g>
			<path fill="#FFFFFF" d="M38.5,55l-2-2.3l0.7-3l-2.8-1.3l-0.5-3l-3.1,0L29,42.8L26.2,44l-2.6-1.6l-2.1,2.3l-3.1-0.4l-1,2.9l-3,0.8
				l0.3,3.1l-2.3,1.9c1,0,2.7,0,4.6,0c1.2-3.4,4.4-5.8,8.2-5.8c4.8,0,8.7,3.9,8.7,8.7c0,3-1.7,5.6-4.1,7.1c0,1.5,0,3.1,0,4.4
				l1.5-2.2l3.1-0.2l0.4-3.1l2.7-1.4l-0.9-2.9L38.5,55z M28.7,55.6c-0.2,0-0.2,0.2-0.2,0.4v12.6c0,1-1.2,2.2-2.2,2.2H4
				c-1,0-1.8-0.7-1.8-1.7V55.1c0-0.1,0-0.4,0.4-0.4h21.4c0,0,0,0,0,0c0,0,0,0,0,0.1v13.4c0,1,0.8,1.8,1.8,1.8c1,0,1.7-0.8,1.7-1.7
				V55.5c0-0.2,0-0.4-0.2-0.4c-0.2,0-0.3,0.1-0.3,0.3v12.6c0,0.6-0.6,0.9-1.3,0.9c-0.6,0-0.9-0.2-0.9-0.9V54.6
				c0-0.3-0.2-0.9-0.9-0.9H2.7c-0.8,0-1.3,0.8-1.3,1.3V69c0,1.4,1.2,2.6,2.6,2.6h22.3c1.4,0,2.6-1.7,2.6-3.1V56
				C28.9,55.8,28.9,55.6,28.7,55.6z M25.9,69.9C25.9,69.9,25.9,69.9,25.9,69.9C25.9,69.9,25.9,69.9,25.9,69.9L25.9,69.9z M22.8,56
				H3.5v1.3h19.2V56z M22.8,59h-5.7v0.9h5.7C22.8,59.9,22.8,59,22.8,59z M26,68.2c0.2,0,0.3-0.3,0.3-0.5V55.1c0-0.2-0.1-0.5-0.3-0.5
				s-0.2,0.3-0.2,0.5v12.6C25.9,67.9,25.8,68.2,26,68.2z M11.3,65.2c-0.1,0.6-1.5,0.3-0.8,0.7c0.7,0.4,2.2,0.2,2.6,0.9
				c0.4,0.6,0.7,1.4,0.8,2c0,0,0.1,0.2,0.1,0.2h0.9c0.3,0,0.9-0.5,0.9-0.9v-8.3c0-0.3-0.5-0.9-0.9-0.9H4.4c-0.3,0-0.9,0.5-0.9,0.9
				v8.3c0,0.3,0.5,0.9,0.9,0.9h0.4c0-0.7,0.1-2.1,0.9-2.4c1.2-0.4,2.6-0.8,2.6-1.1c0-0.3-0.4-1.2-0.5-2.2c-0.1-1,0.6-1.8,1-2.1
				c0.4-0.2,1.5-0.2,2,0.3c0.5,0.5,0.7,0.6,0.6,1.8C11.5,64.4,11.4,64.5,11.3,65.2z M22.8,60.7h-5.7v0.9h5.7
				C22.8,61.6,22.8,60.7,22.8,60.7z M22.8,62.5h-5.7v0.9h5.7C22.8,63.4,22.8,62.5,22.8,62.5z M22.8,64.2h-5.7v0.9h5.7
				C22.8,65.1,22.8,64.2,22.8,64.2z M22.8,66h-5.7v0.9h5.7C22.8,66.8,22.8,66,22.8,66z"/>
		</g>
	</g>
	<path fill="#FFFFFF" d="M30.7,84.2c-0.8-0.1-5.2-0.7-8.1-1.7c-2.7-0.9-6.5-2.7-7.6-3.2c-0.2-0.1-0.3,0-0.3,0.2c0,0,0,0.2,0,0.5v6.8
		v13.9c-0.8-0.7-2.1-1.2-3.5-1.2c-2.5,0-4.6,1.5-4.6,3.4c0,1.9,2.1,3.4,4.6,3.4c2.5,0,4.6-1.5,4.6-3.4V87.4c1.5,0.7,4.2,2,6.4,2.7
		c2.4,0.7,5.8,1.3,7.5,1.6v13.4c-0.8-0.7-2.1-1.2-3.5-1.2c-2.5,0-4.6,1.5-4.6,3.4c0,1.9,2.1,3.4,4.6,3.4c2.5,0,4.6-1.5,4.6-3.4V91.9
		v-7.5c0,0,0-0.1,0-0.1C30.8,84.4,30.8,84.3,30.7,84.2z"/>
	<path fill="#FFFFFF" d="M39.8,143c0.4-1.6,0-2.9-0.3-3.6c-12-3.2-17-2.8-20-2l10.2,4.5l0,0l8.9,1.6c-0.3,0.1,0-0.1,0,0
		c-0.4,0.7-1,1.6-2.7,1.2c-1.2-0.3-7.7-2-14.5-3.9c-8.2-2.2-17.6-4.7-19.7-5.3c-0.7-0.2-0.9-0.7-1.1-1.2c-0.3-1,0.7-2.2,1.4-3.4
		c0.2-0.4,0.5-0.5,0.7-0.8l15.7,6.8c3-1,7.7-1.7,20.1,1.5c-1-0.8-3.2-2.5-5.6-4.4c0.3-0.5,0.2-1.2-0.3-1.6c-0.2-0.2-0.4-0.3-0.6-0.4
		c-0.4-0.1-0.9,0-1.2,0.3c-0.3-0.2-0.5-0.4-0.8-0.7c0.3-0.5,0.2-1.2-0.3-1.7c-0.2-0.2-0.4-0.3-0.6-0.4c-0.4-0.1-0.9,0-1.2,0.3
		c-0.3-0.3-0.5-0.6-0.8-0.8c0.3-0.5,0.2-1.2-0.3-1.6c-0.2-0.2-0.4-0.3-0.6-0.4c-0.2-0.1-0.4-0.1-0.6,0c-0.3-0.5-0.6-0.9-0.9-1.4
		c-1.2-1.9-2.3-3.5-3.7-3.9c-0.9-0.2-2.1,0.6-2.8,1.4c-0.7,0.7-1,1.5-0.9,2.1c-1,0.2-2.2,0.2-3.4-0.1c-3.2-0.8-3.9-2.2-5-4.1
		c-0.6-1-1.5-1-1.9-0.7c-2.7,2.1-4.5,6.6-5.1,9.2c-0.6,0.8-2.4,3.6-1.8,5.4c0.2,0.7,0.6,1.3,1.5,1.6c2.1,0.6,11.5,3,19.7,5.3
		c6.7,1.8,13.4,3.6,14.5,3.9c2.3,0.6,3.5-1.2,3.8-2.3L39.8,143L39.8,143z M32,132.8c0.1,0,0.2,0.1,0.3,0.2c0.3,0.3,0.3,0.7,0.1,1
		l-0.9,1c-0.2,0.2-0.7,0.2-1,0c-0.3-0.3-0.3-0.7-0.1-1l0.9-1C31.5,132.8,31.8,132.7,32,132.8z M29.1,130.4c0.1,0,0.2,0.1,0.3,0.2
		c0.3,0.3,0.3,0.7,0.1,1l-0.9,1c-0.2,0.2-0.7,0.2-1,0c-0.3-0.3-0.3-0.7-0.1-1l0.9-1C28.6,130.3,28.8,130.3,29.1,130.4z M26.5,128
		c0.3,0.3,0.3,0.7,0.1,1l-0.9,1c-0.2,0.2-0.7,0.2-1,0c-0.3-0.3-0.3-0.7-0.1-1l0.9-1c0.2-0.2,0.4-0.2,0.6-0.2
		C26.3,127.8,26.4,127.9,26.5,128z M18.8,123.7c0.7-0.8,1.7-1.3,2.2-1.2c1.2,0.3,2.2,1.9,3.3,3.6c0.3,0.4,0.6,0.9,0.9,1.3
		c0,0,0,0-0.1,0l-0.1,0.1c-1.5-1.3-2.7-2.3-3.2-2.9c-0.6-0.7-1.5-0.6-2.4-0.1c-0.4,0.2-0.9,0.4-1.4,0.6
		C18,124.8,18.3,124.2,18.8,123.7z M16.8,128.7c2.2,0,3.2,0.2,4.1,1c1,0.8,1.3,2.1,0.8,3.1c-0.5,1.1-1.9,1.9-3.7,1.4
		c-5-1.3-3.9-4.5-3.9-4.5s1.2,2.6,3.3,2.7c0.9,0.1,1.8-0.8,1.1-1.7c-0.7-0.9-3.2-0.7-4.4-2.3c-0.7-1-0.4-2.2-0.4-2.2
		C13.8,126.3,14.5,128.8,16.8,128.7z"/>
	<path fill="#FFFFFF" d="M34.8,245.8c-0.8,0-1.6,0.3-2.3,0.7c0-0.3-0.1-0.5-0.2-0.7c-1-1.9-5.6-3.4-11.5-3.9
		c0.7-0.8,1.7-2.4,1.7-4.6c0-3.5-2.5-3.8-2.5-7.4c0,0-1.8,4.4,0,7.1c1.2,1.8,0.8,3.8,0.4,4.9c-0.3,0-0.6,0-0.9-0.1
		c0-0.4,0.1-0.8,0.1-1.2c0-5-3.5-5.4-3.5-10.7c0,0-2.6,6.4,0,10.1c0.4,0.6,0.6,1.1,0.8,1.7c-0.4,0-0.9,0-1.3,0
		c-0.7-1.9-2.1-2.7-2.1-5.5c0,0-1.2,3.1-0.6,5.6c-5.8,0.5-10.2,2-11.2,3.8c-0.1,0.3-0.2,0.5-0.2,0.8v1.8c0,8.6,7,15.5,15.5,15.5
		c7.3,0,13.4-5,15.1-11.7c0.7,0.7,1.6,1.2,2.7,1.2c2.1,0,3.8-1.7,3.8-3.8C38.6,247.5,36.9,245.8,34.8,245.8z M31,247.3
		C31,247.3,31,247.3,31,247.3C31,247.3,31,247.3,31,247.3c-0.7,2.3-6.7,4.1-14,4.1s-13.3-1.7-14-4c0,0,0,0,0,0c0,0,0,0,0,0
		c0,0,0,0,0,0c0,0,0,0,0,0c0,0,0,0,0,0c0,0,0-0.1,0-0.1c0.5-1.8,4.7-3.4,10.4-3.8c0,0,0,0.1,0,0.1c1.8,2.6,0,5.7,0,5.7
		s2.5-1.8,2.5-5.3c0-0.2,0-0.4,0-0.6c0.4,0,0.7,0,1.1,0c0,0,0.1,0,0.1,0c0.3,2.7-1.1,5.1-1.1,5.1s2.3-1.7,3.2-5.1
		C25.5,243.6,30.4,245.2,31,247.3C31,247.2,31,247.2,31,247.3C31,247.2,31,247.2,31,247.3C31,247.2,31,247.2,31,247.3
		C31,247.2,31,247.2,31,247.3z M34.8,251.8c-1.2,0-2.2-1-2.2-2.2c0-1.2,1-2.2,2.2-2.2c1.2,0,2.2,1,2.2,2.2
		C37,250.8,36,251.8,34.8,251.8z"/>
	<g>
		<g>
			<path fill="#FFFFFF" d="M19.7,158.2l-18.6,9.2l6.8,3.4v-1.8c0,0,4.2-3.7,11.8-3.7s11.3,3.7,11.3,3.7v2l2.8-1.4v-4.4L19.7,158.2z
				 M34.6,165.6v3.7l3.7-1.8L34.6,165.6z M35,175.5c0.3-0.2,0.4-0.6,0.4-0.9c0-0.5-0.4-1-0.8-1.2v-4.1l-0.7,0.4v3.8
				c-0.5,0.2-0.8,0.6-0.8,1.1c0,0.4,0.2,0.7,0.4,0.9c-0.9,1-1,3.5-1.1,3.6c0,0,0,0,0,0v0c0,0,0,0,0,0c0,0,0,0,0,0h0
				c0,0.2,0.8,0.4,1.8,0.4c1,0,1.8-0.2,1.8-0.4h0c0,0,0,0,0,0c0,0,0,0,0,0c0,0,0,0,0,0C36,179,35.9,176.5,35,175.5z M21.7,176.4
				c-0.7-0.1-1.5,0.7-2.2,0.7c-0.8,0-1.6-0.7-2.3-0.6c-4.5,0.4-7.8,1.8-8,3.5c0,0,0,0.1,0,0.1c0,2.1,4.6,3.7,10.3,3.7
				c5.7,0,10.3-1.7,10.3-3.7c0,0,0-0.1,0-0.1C29.6,178.2,26.2,176.8,21.7,176.4z M9.2,169.9v1.5v6.7c1.1-1.3,4.1-2.3,7.9-2.6
				c0.8-0.1,1.5,0.7,2.3,0.7c0.8,0,1.6-0.7,2.3-0.7c3.9,0.3,7,1.4,8,2.8v-6.6v-1.7c0,0-3.3-3.3-10.1-3.3
				C12.9,166.6,9.2,169.9,9.2,169.9z"/>
		</g>
	</g>
	<path fill="#FFFFFF" d="M35,202.4c-1.3,1.3-2.9,1.9-4.5,1.9c-0.2,0-1,0.1-1.9,0.3c-1.1,0.2-1.7,1.1-1.7,1.1l-10.1,10.1
		c0,0-0.8,0.6-1.1,1.7c-0.2,1-0.3,1.8-0.3,2c0,1.6-0.6,3.3-1.9,4.6c-1.5,1.5-3.4,2.1-5.3,1.8l2.5-3.8l-0.1-1.6L8.8,219H6.9l-2.8,4
		c-1.3-2.3-0.9-5.3,1.1-7.4c1.2-1.3,2.9-1.9,4.5-1.9c0.2,0,1-0.1,1.9-0.3c1.1-0.2,1.7-1.1,1.7-1.1l10.1-10.1c0,0,0.8-0.6,1.1-1.7
		c0.2-1,0.3-1.8,0.3-2c0-1.6,0.6-3.3,1.9-4.6c1.5-1.5,3.4-2.1,5.3-1.8l-2.5,3.8l0.1,1.6l1.7,1.3h1.9l2.8-4
		C37.4,197.3,37,200.4,35,202.4z M20.6,203.8l-3.3,3.3c-0.2-0.4-0.3-0.6-0.4-0.9c-1-1.9-3.3-4.7-3.3-4.7s-1.1-1.1-2.3-1.2
		c-1.2-0.1-2.4,1-2.4,1.5c0,0.4,0.3,0.8,0.3,0.8l-2,1.9l-1.3-0.1l-2.7-2.7v-1.5c0,0,1.9-1.1,2.5-1.6s0.1-0.9,1.7-2.8
		c1.8-2.1,2.9-3.2,6.7-3.5c4.4-0.4,6.5,1.5,6.5,1.5h-0.9l0.7,0.8c0,0-1.7-0.9-3.3-0.9c-1.6-0.1-2.6,0.5-3.2,1.6
		c-0.5,0.9,0.2,2,1.1,3.2C15.6,199.4,17.4,200.7,20.6,203.8z M32.7,217.5c0.9,1.3,1.7,2.1,2.4,2.7c0.7,0.6,0.9,0.9,0.9,0.9
		s-0.4,1.7-2.1,3.4c-1.8,1.7-3.2,0.9-3.2,0.9l-0.9-0.5c0,0-0.1-2.6-0.5-3.8c-0.5-1.1-3-2.6-5.6-5.6c-0.8-0.9-1.7-2-2.5-3.1l4-4
		C29.6,213.4,31.8,216.3,32.7,217.5z"/>
	<g>
		<g>
			<path fill="#FFFFFF" d="M13.4,288.3l2.4,2.4l8.8-8.8l2.1,2.1l5-5l-1.2-1.2l-3.8,3.8l-2.1-2.1l-8.8,8.8l-2.4-2.4l-5.6,5.6l1.2,1.2
				L13.4,288.3z M37.1,274.3v-3.3H2.3v3.3h2.3v21.3H2.3v3.3h34.8v-3.3h-2.3v-21.3L37.1,274.3L37.1,274.3z M33.9,295.7H5.5v-21.3
				h28.4V295.7z"/>
		</g>
	</g>
	<g>
		<g>
			<path fill="#FFFFFF" d="M14.2,314.9l1.7-3.4h-3.4l1.3,2.6L14.2,314.9z M26.2,314.1l1.3-2.6h-3.4l1.7,3.4L26.2,314.1z M19.6,324.9
				l0.1,0.2v0.3v0c0.1,0,0.2,0,0.3,0s0.2,0,0.3,0v0v-0.3l0.1-0.2l4.9-8.9L20,305.3L14.8,316L19.6,324.9z M38.6,318.8l-8-1.2
				L25,327.9c0.8,1.1,1.3,2.4,1.3,3.8c0,2-1,3.8-2.4,5l7.6,4l-2.2-12.8L38.6,318.8z M13.7,331.7c0-1.4,0.5-2.7,1.3-3.8l-5.6-10.2
				l-8,1.2l9.3,9.1l-2.2,12.8l7.6-4C14.7,335.5,13.7,333.7,13.7,331.7z M18.7,325.5v-0.1l-7.5-13.9H9.9v5l5.7,10.6
				C16.5,326.3,17.6,325.7,18.7,325.5z M21.3,325.5c1.2,0.2,2.2,0.8,3.1,1.6l5.7-10.6v-5h-1.3l-7.5,13.9V325.5z M20,326.6
				c-2.8,0-5,2.3-5,5c0,2.8,2.3,5,5,5s5-2.3,5-5C25,328.9,22.8,326.6,20,326.6z"/>
		</g>
	</g>
	<g>
		<g>
			<path fill="#FFFFFF" d="M28.6,354.6h2c0,0-6.4-8.3-6.7-8.6s-0.8-0.4-1.1-0.1c-0.3,0.3-0.4,0.8-0.1,1.1
				C23,347.2,28.6,354.6,28.6,354.6z M17.6,346.9c0.3-0.3,0.2-0.8-0.1-1.1c-0.3-0.3-0.8-0.2-1.1,0.1c-0.3,0.3-6.7,8.6-6.7,8.6h2
				C11.7,354.6,17.3,347.2,17.6,346.9z M34.7,361.5c-0.4,0-28.8,0-29.5,0c-0.8,0-0.7,0-0.9,0.1c-0.1,0.2,0.1,0.9,0.1,0.9l3.4,11.6
				c0,0,0.2,0.9,0.9,1.5c0.9,0.9,1.9,0.8,1.9,0.8l18.6,0c0,0,0.9,0.1,1.9-0.7c0.7-0.6,0.9-1.5,0.9-1.5l3.4-11.5c0,0,0.3-0.7,0.1-0.9
				C35.3,361.5,35.3,361.5,34.7,361.5z M11.4,373.5c-1.1,0-1.3-0.9-1.3-0.9l-2.2-7.4c0,0-0.4-1.3,1-1.3c1.2,0,1.4,1.3,1.4,1.3l2,7.4
				C12.4,372.6,12.4,373.5,11.4,373.5z M15.7,373.5c-1.1,0-1.3-0.9-1.3-0.9l-0.9-7.4c0,0-0.3-1.3,1.2-1.3c1.2,0,1.3,1.3,1.3,1.3
				l0.7,7.4C16.7,372.6,16.8,373.5,15.7,373.5z M21.3,372.4c0,0-0.1,1-1.1,1c-1.1,0-1.1-1-1.1-1l-0.1-7.2c0,0,0-1.3,1.3-1.3
				c1.3,0,1.3,1.3,1.3,1.3L21.3,372.4z M26.7,365.2l-0.9,7.4c0,0-0.2,0.9-1.3,0.9s-1-0.9-1-0.9l0.7-7.4c0,0,0.1-1.3,1.3-1.3
				C27,363.9,26.7,365.2,26.7,365.2z M32.3,365.2l-2.1,7.4c0,0-0.2,0.9-1.3,0.9c-1.1,0-1-0.9-1-0.9l2-7.4c0,0,0.2-1.3,1.4-1.3
				C32.7,363.9,32.3,365.2,32.3,365.2z M36.5,355.6H3.8c-0.6,0-1,0.5-1,1v2.8c0,0.6,0.5,1,1,1h32.7c0.6,0,1-0.5,1-1v-2.8
				C37.5,356.1,37.1,355.6,36.5,355.6z"/>
		</g>
	</g>
	<g>
		<g>
			<path fill="#FFFFFF" d="M19.9,393c-0.1,0-0.3,0.1-0.3,0.3c0,0.1,0.1,0.3,0.3,0.3c2.1,0,3.8,1.7,3.8,3.8c0,0.1,0.1,0.3,0.3,0.3
				c0.1,0,0.3-0.1,0.3-0.3C24.2,395,22.2,393,19.9,393z M19.9,389c-4.5,0-8.2,3.7-8.2,8.3c0,4.6,3.7,8.3,8.2,8.3
				c4.5,0,8.2-3.7,8.2-8.3C28.1,392.8,24.4,389,19.9,389z M19.9,402.9c-3.1,0-5.6-2.5-5.6-5.6c0-3.1,2.5-5.6,5.6-5.6
				c3.1,0,5.6,2.5,5.6,5.6C25.5,400.4,23,402.9,19.9,402.9z M34.2,386.4H25c-0.5-1.3-1.2-3.6-1.5-3.6h-7.2c-0.3,0-1,2.3-1.5,3.6H5.6
				c-1.6,0-3.1,1.5-3.1,3.2v16.5c0,1.7,1.4,2.9,3.1,2.9h12.3l-3.2,5.3l0.9,0.6l3.8-5.8v6.2h1V409l3.7,5.8l0.9-0.6l-3-5.3h12.3
				c1.6,0,3.1-1.3,3.1-2.9v-16.5C37.3,387.9,35.9,386.4,34.2,386.4z M11.2,405.4c-0.5,0-1-0.5-1-1c0-0.5,0.5-1,1-1c0.5,0,1,0.5,1,1
				C12.2,404.9,11.7,405.4,11.2,405.4z M19.9,406.3c-4.9,0-8.9-4-8.9-8.9c0-4.9,4-8.9,8.9-8.9c4.9,0,8.9,4,8.9,8.9
				C28.8,402.3,24.8,406.3,19.9,406.3z M34.2,391c0,0.3-0.2,0.5-0.5,0.5h-3.6c-0.3,0-0.5-0.3-0.5-0.5v-1.5c0-0.3,0.2-0.5,0.5-0.5
				h3.6c0.3,0,0.5,0.2,0.5,0.5V391z"/>
		</g>
	</g>
	<g>
		<g>
			<path fill="#FFFFFF" d="M6.5,446.5l-2.4,4.5c0.2-0.1,0.5-0.2,1,0.3c0.5,0.4,0.5,0.9,0.4,1.1l4.4-2.4c0-0.4,0-1.8-0.9-2.6
				C8.3,446.6,6.9,446.5,6.5,446.5z M4.6,451.9c-0.4-0.4-0.7-0.4-0.8-0.4L2.5,454l2.6-1.4C5.1,452.5,5,452.2,4.6,451.9z M25.8,430.7
				c-1.4-1.3-2.9-1-2.9-1l-2.6,2.6c0,0,1.7-0.2,2.9,1c1.2,1.2,1,2.9,1,2.9l0,0l2.5-2.5C26.7,433.7,27.2,432,25.8,430.7z M37.3,425.3
				l-0.9-0.9l-1.1,1.1c0,0,0.3,0.1,0,0.4c-0.2,0.3-6,6.6-7.4,8.1l-0.3-1.2l8.8-8.8c0,0,0.6-1.8-0.7-3.1c-1.3-1.3-3.1-0.7-3.1-0.7
				l-1.3,1.3c0,0,1.7-0.2,2.9,1c1.2,1.2,1,2.9,1,2.9l-0.6,0.6c0,0,0.5-1.7-0.9-3c-1.4-1.3-2.9-1-2.9-1l-4.9,4.9l-1.5-5.3l-2.3,0.7
				l-0.4-1.6c-0.1-0.5-0.7-0.9-1.2-0.7c-0.5,0.1-0.9,0.7-0.7,1.2l0.4,1.7l-1.1,0.3l-0.4-1.5c-0.1-0.5-0.7-0.9-1.2-0.7
				c-0.5,0.1-0.9,0.7-0.7,1.2l0.4,1.6l-1.1,0.3l-0.4-1.4c-0.1-0.5-0.7-0.9-1.2-0.7c-0.5,0.1-0.9,0.7-0.7,1.2l0.4,1.5l-1.1,0.3
				l-0.4-1.3c-0.1-0.5-0.7-0.9-1.2-0.7c-0.5,0.1-0.9,0.7-0.7,1.2l0.4,1.4l-1.1,0.3l-0.3-1.2c-0.1-0.5-0.7-0.9-1.2-0.7
				c-0.5,0.1-0.9,0.7-0.7,1.2l0.3,1.3l-2.3,0.7l4.4,15.6l-2.9,2.9c0.4,0,1.8,0.1,2.9,1c1.1,0.9,1.1,2.4,1,2.8l0.7-0.7l1.5,5.3
				l18.8-6.1l-3.7-12.9l9-9L37.3,425.3z M20.4,420.4l1.4,5.4c-0.3,0.1-0.6-0.1-0.6-0.4l-1.2-4.4C20,420.8,20.1,420.5,20.4,420.4z
				 M17.4,421.4l1.4,5.4c-0.3,0.1-0.6-0.1-0.6-0.4l-1.2-4.4C16.9,421.8,17.1,421.5,17.4,421.4z M14.3,422.5l1.4,5.4
				c-0.3,0.1-0.5-0.1-0.6-0.4l-1.2-4.4C13.9,422.8,14,422.5,14.3,422.5z M11.3,423.5l1.4,5.4c-0.3,0.1-0.6-0.1-0.6-0.4l-1.2-4.4
				C10.8,423.8,11,423.5,11.3,423.5z M8.2,424.5l1.4,5.4c-0.3,0.1-0.6-0.1-0.6-0.4l-1.2-4.4C7.8,424.8,7.9,424.6,8.2,424.5z
				 M29.7,443.9c-0.2,0.1-0.4,0.2-0.8,0.4c-1.5,0.5-2.7-0.2-2.7-0.2c0,0,0.3,1.2-0.1,2.7c-0.2,1.1-0.6,1.7-0.9,2l-11.4,3.7l-1.3-4.6
				l11.3-11.2c0,0,0.5-1.7-0.9-3c-1.4-1.3-2.9-1-2.9-1l0.2-0.2l-9.5,9.5l-4-13.9l1.3-0.4l0.5,2c0.1,0.5,0.7,0.9,1.2,0.7
				c0.5-0.1,0.9-0.7,0.7-1.2L9.9,427l1.1-0.3l0.5,1.9c0.1,0.5,0.7,0.9,1.2,0.7c0.5-0.1,0.9-0.7,0.7-1.2l-0.5-2l1.1-0.3l0.5,1.8
				c0.1,0.5,0.7,0.9,1.2,0.7c0.5-0.1,0.9-0.7,0.7-1.2l-0.5-1.9l1.1-0.3l0.5,1.7c0.1,0.5,0.7,0.9,1.2,0.7c0.5-0.1,0.9-0.7,0.7-1.2
				l-0.5-1.8l1.1-0.3l0.4,1.6c0.1,0.5,0.7,0.9,1.2,0.7c0.5-0.1,0.9-0.7,0.7-1.2l-0.5-1.7l1.3-0.4l1.4,4.7l-1.6,1.6
				c0,0,1.7-0.2,2.9,1c1.2,1.2,1,2.9,1,2.9l-0.6,0.6l0.2,0.7c-0.3,0-0.6,0.2-0.8,0.5c-0.9,1.2,0.3,2,0.3,2l0.9-0.9L29.7,443.9z"/>
		</g>
	</g>
	<g>
		<g>
			<path fill="#FFFFFF" d="M24.2,471.8c3.5,0,6.8,1,9.1,2.6c0.7-1.2,1.1-2.6,1.1-4c0-6.1-7.1-11-15.9-11c-8.8,0-15.9,4.9-15.9,11
				c0,2.9,1.6,5.5,4.2,7.5c-0.2,0.6-0.4,1.3-0.8,1.9c-0.8,1.1-3.3,1.3-3.3,1.3s2.7,0.9,5.3,0.5c1.1-0.2,2.1-0.5,3-0.8
				C11.4,475.8,17.1,471.8,24.2,471.8z M34.3,488.7c-0.4-0.6-0.7-1.5-0.8-2c1.8-1.5,2.9-3.4,2.9-5.5c0-4.7-5.4-8.4-12.2-8.4
				c-6.7,0-12.2,3.8-12.2,8.4c0,4.7,5.4,8.4,12.2,8.4c1.9,0,3.7-0.3,5.3-0.8c0.3,0.3,1.3,1.1,2.9,1.5c2.2,0.5,4.8-0.2,4.8-0.2
				S34.9,489.6,34.3,488.7z"/>
		</g>
	</g>
	<g>
		<g>
			<path fill="#FFFFFF" d="M30.5,500.2l-2,0.6l-0.6-2l-5.3,1.6L22,498l-2,0.6l-0.6-2l-16.9,5l0.1,0.2c0,0,0,0,0,0
				c0.6,2.1,6.2,22.8,6.8,24.1c0.6,1.4,2.5,1.5,2.5,1.5l5.2-1.7c0.4,1.3,0.7,2.3,0.8,2.5c0.6,1.4,2.5,1.5,2.5,1.5l16.9-5.5
				L30.5,500.2z M5.8,502.8c-1.4,0.2-2-0.5-2-0.5l15.1-4.5l0.3,1L5.8,502.8z M27.4,500l0.3,1l-13.4,4c-1.4,0.2-2-0.5-2-0.5L27.4,500
				z M18.4,526.8c-0.6-1.8-6.1-21.2-6.1-21.2s0.5,0.4,1.1,0.5c0.4,0.1,0.7,0,0.7,0l6.1,22.1C20.1,528.2,18.9,528.1,18.4,526.8z
				 M14.9,506l15.1-4.5l6.3,21.9l-15.1,5L14.9,506z M27.5,507.3l-7.3,2.3l0.4,1.3l7.3-2.3L27.5,507.3z M20.9,511.8l0.4,1.3l7.3-2.3
				l-0.4-1.3L20.9,511.8z"/>
		</g>
	</g>
	<g>
		<g>
			<path fill="#FFFFFF" d="M37.4,533.9c-0.7,0-2.5,0.5-4,1.2c-2,0.9-3.1,1.9-3.1,1.9l-3.5,3.5c-0.3,0.2-0.6,0.4-1,0.7l-3.3-0.2
				c1-0.9,1.3-1.6,1.3-1.6s0-0.8-0.8-1.5c-0.8-0.7-1.4-1-1.4-1s-0.7,0.1-2.5,2.2c-0.3,0.3-0.6,0.7-0.8,1.1l-11.1-3.6l-1.9,0.9
				l5.2,3.2c-0.6,0.6-1.2,1.4-1,1.5c0.1,0.1,1.2-0.4,1.9-1l2.9,1.7c-0.8,0.6-1.4,1.6-1.3,1.7c0.1,0.1,1.3-0.4,1.9-1
				c0,0,0.1-0.1,0.1-0.1l1.5,1.3l1.1,1.3c-0.1,0.1-0.2,0.1-0.3,0.2c-0.8,0.6-1.5,1.6-1.3,1.8c0.1,0.1,1.3-0.4,1.9-1
				c0.1-0.1,0.2-0.2,0.2-0.3l0.8,0.9c-0.4,0.5-0.8,1-1.1,1.5l-5.8,5.7c0,0-0.3,0.3-0.7,0.9l-8.7,0.5v0.6l6.9,3
				c-0.2,0.6-0.4,1.1-0.5,1.5l0,0c0,0-0.1,0.2,0,0.3c0.1,0.1,0.3,0,0.3,0l0,0c0.4-0.1,0.9-0.2,1.5-0.5l3.1,6.7h0.6l0.5-8.6
				c0.7-0.4,1-0.7,1-0.7l5.8-5.7c0.5-0.3,1-0.6,1.5-1l1,0.8c-0.1,0.1-0.2,0.2-0.3,0.2c-0.6,0.6-1.2,1.8-1,1.9
				c0.2,0.1,1.2-0.6,1.8-1.3c0.1-0.1,0.1-0.2,0.2-0.2l1.3,1.1l1.3,1.5c0,0-0.1,0.1-0.1,0.1c-0.6,0.6-1.2,1.8-1,1.9
				c0.2,0.1,1.1-0.5,1.8-1.3l1.8,2.8c-0.6,0.6-1.1,1.8-1,1.9c0.1,0.1,0.9-0.4,1.5-1l3.3,5.1l0.9-1.9L31,552.8
				c0.4-0.2,0.7-0.5,1.1-0.8c2.2-1.8,2.3-2.5,2.3-2.5s-0.2-0.7-1-1.4c-0.7-0.8-1.5-0.8-1.5-0.8s-0.6,0.4-1.6,1.3l-0.2-3.3
				c0.3-0.3,0.5-0.7,0.7-1l3.5-3.5c0,0,1-1.2,1.9-3.1C36.9,536.4,37.3,534.6,37.4,533.9l-19,18.7L37.4,533.9z"/>
		</g>
	</g>
	<g>
		<path fill="#FFFFFF" d="M1.4,607.6h37.1l-6.8-15.1h-4.8c2.3-3.6,4.3-7.6,4.3-10.3c0-6.5-5-11.7-11.3-11.7
			c-6.2,0-11.3,5.2-11.3,11.7c0,2.7,2,6.7,4.3,10.3H8.9L1.4,607.6z M20,573.8c3.9,0,7,3.3,7,7.3s-3.1,7.3-7,7.3
			c-2,0-3.8-0.9-5.1-2.2c-1.2-1.3-2-3.1-2-5.1C13,577.1,16.1,573.8,20,573.8z M14.2,594.2c2.9,4.2,5.8,7.7,5.8,7.7s2.9-3.4,5.8-7.7
			h4.9l5.3,11.7H4.1l5.8-11.7L14.2,594.2L14.2,594.2z"/>
		<polygon fill="#FFFFFF" points="18.8,579.9 14.9,586.2 21.2,582.3 25.1,576 		"/>
	</g>
</g>
</svg>
