<?xml version="1.0" encoding="utf-8"?>
<!-- Generator: Adobe Illustrator 18.0.0, SVG Export Plug-In . SVG Version: 6.00 Build 0)  -->
<!DOCTYPE svg PUBLIC "-//W3C//DTD SVG 1.1//EN" "http://www.w3.org/Graphics/SVG/1.1/DTD/svg11.dtd">
<svg version="1.1" id="Layer_1" xmlns="http://www.w3.org/2000/svg" xmlns:xlink="http://www.w3.org/1999/xlink" x="0px" y="0px"
	 viewBox="0 0 65 58" enable-background="new 0 0 65 58" xml:space="preserve">
<path fill="#FFFFFF" d="M48.8,0.4L48.8,0.4L48.8,0.4L48.8,0.4L48.8,0.4L32.6,6.9L16.3,0.4l0,0l0,0l0,0l0,0L0.1,6.9v50.8l16.2-6.2
	l16.2,6.2l0,0l0,0l0,0l0,0l16.1-6.2l16.2,6.2V6.9L48.8,0.4z M55,29.9c-0.6,1.2-2.1,4.6-1.5,3.8c-0.6,0.7-1,0.9-2.5,0.6
	c-1.2,0.9-1.8,1.2-3.1,1.9c-1.5,0.3-4.6-0.7-5.9-1c-2.7-0.4-2.8,0.1-5.2,1.3c-3.4,1.6-2.7,5.9-4,8.3l0,0l0,0
	c0.1,0.3,0.1,0.6,0.3,0.7l0,0l0,0c0,0.3,0.1,0.4,0.1,0.7c-3.8,0.4-7.7-0.1-11.2-1.8c-2.7-1.3-5-3.2-6.9-5.6c0.4-0.3,0.9-0.4,1.3-0.7
	l0,0c0.3-0.1,0.6-0.3,0.7-0.4h-0.4c-0.9-0.1-0.3-0.1-1-0.1c0.7-0.9,1.9-1.8,2.1-1.8l0.1-0.1c-1,0.3-2.5,0.7-3.2,1.5
	c0.3-1.3,1.3-2.2,1.8-3.4c-1.2,0.6-2.4,1.5-3.4,2.4c0-1.2,1.3-2.2,1.9-3.1c0.4-0.7,1-1.2,1.3-1.8c-1.3,0.4-4.1,1.9-5.2,2.7
	c0.6-1.8,2.8-4.3,4.1-5.6c-1.2,0.1-4,1.8-5,2.4c0-0.1,0-0.1,0-0.3c0.9-1.3,3.5-3.5,4.9-4.7c-1.5,0.1-4.4,1.8-5.9,2.2
	c1.2-2.2,5.2-4.9,7.1-6.5l-4.6,1.2c-0.6,0.1-1.3,0.6-1.9,0.4c2.4-2.5,7.4-6.6,10.5-8.6c0,0,4.4-3.1,8.9-2.7c2.1,0.6,3.8,1.3,5.9,1.8
	c1.8-0.4,4.1-1,5.9,0.1c1.2,1,2.2,2.5,1.6,4.1c3.1,3.4,9.9,3.8,11.8,6.3c0.3,0.4,0.1,3.2,0.7,5L55,29.9z"/>
</svg>
