<?xml version="1.0" encoding="utf-8"?>
<!-- Generator: Adobe Illustrator 18.0.0, SVG Export Plug-In . SVG Version: 6.00 Build 0)  -->
<!DOCTYPE svg PUBLIC "-//W3C//DTD SVG 1.1//EN" "http://www.w3.org/Graphics/SVG/1.1/DTD/svg11.dtd">
<svg version="1.1" id="Layer_1" xmlns="http://www.w3.org/2000/svg" xmlns:xlink="http://www.w3.org/1999/xlink" x="0px" y="0px"
	 viewBox="0 0 78 20" enable-background="new 0 0 78 20" xml:space="preserve">
<g enable-background="new    ">
	<g>
		<defs>
			<rect id="SVGID_1_" x="0" width="78" height="20"/>
		</defs>
		<clipPath id="SVGID_2_">
			<use xlink:href="#SVGID_1_"  overflow="visible"/>
		</clipPath>
		<g clip-path="url(#SVGID_2_)">
			<defs>
				<rect id="SVGID_3_" x="-70" y="-1588" width="1400" height="1637"/>
			</defs>
			<clipPath id="SVGID_4_">
				<use xlink:href="#SVGID_3_"  overflow="visible"/>
			</clipPath>
			<g clip-path="url(#SVGID_4_)">
				<defs>
					<path id="SVGID_5_" d="M3.2,5.7c0.2,0.4,0.3,0.7,0.5,1.4C4.6,6.2,5.7,5.7,7,5.7c1.1,0,2,0.4,2.8,1.1c0.2,0.2,0.4,0.4,0.5,0.7
						c1.2-1.2,2.4-1.7,3.8-1.7c1.1,0,2.1,0.3,2.7,0.8c0.8,0.7,1,1.4,1,3.3v9.5h-3.4v-8.8c0-1.6-0.2-1.9-1.1-1.9
						c-0.7,0-1.6,0.4-2.4,1.1v9.6H7.5v-8.7c0-1.7-0.2-2.1-1.2-2.1c-0.7,0-1.6,0.3-2.3,1v9.7H0.5V10c0-1.9-0.1-2.8-0.5-3.4L3.2,5.7"
						/>
				</defs>
				<clipPath id="SVGID_6_">
					<use xlink:href="#SVGID_5_"  overflow="visible"/>
				</clipPath>
				<g clip-path="url(#SVGID_6_)">
					<defs>
						<rect id="SVGID_7_" x="0" width="78" height="20"/>
					</defs>
					<clipPath id="SVGID_8_">
						<use xlink:href="#SVGID_7_"  overflow="visible"/>
					</clipPath>
					
						<rect x="-5" y="0.7" clip-path="url(#SVGID_8_)" fill-rule="evenodd" clip-rule="evenodd" fill="#4F5051" width="27.8" height="23.6"/>
				</g>
			</g>
		</g>
		<g clip-path="url(#SVGID_2_)">
			<defs>
				<rect id="SVGID_9_" x="-70" y="-1588" width="1400" height="1637"/>
			</defs>
			<clipPath id="SVGID_10_">
				<use xlink:href="#SVGID_9_"  overflow="visible"/>
			</clipPath>
			<g clip-path="url(#SVGID_10_)">
				<defs>
					<path id="SVGID_11_" d="M24.1,9.6c-0.2,0.7-0.4,1.6-0.4,3c0,1.5,0.2,2.7,0.4,3.4c0.3,0.7,1.1,1.1,1.8,1.1
						c1.5,0,2.2-1.4,2.2-4.5c0-1.8-0.2-3-0.7-3.6c-0.3-0.4-0.9-0.7-1.5-0.7C25,8.3,24.4,8.8,24.1,9.6z M30.4,7.7
						c1.1,1.2,1.6,2.7,1.6,4.9c0,2.3-0.5,3.9-1.7,5.2c-1,1.1-2.4,1.9-4.5,1.9c-3.7,0-6.1-2.7-6.1-6.9c0-4.2,2.4-7,6.1-7
						C27.8,5.7,29.3,6.3,30.4,7.7z"/>
				</defs>
				<clipPath id="SVGID_12_">
					<use xlink:href="#SVGID_11_"  overflow="visible"/>
				</clipPath>
				<g clip-path="url(#SVGID_12_)">
					<defs>
						<rect id="SVGID_13_" x="0" width="78" height="20"/>
					</defs>
					<clipPath id="SVGID_14_">
						<use xlink:href="#SVGID_13_"  overflow="visible"/>
					</clipPath>
					
						<rect x="14.8" y="0.7" clip-path="url(#SVGID_14_)" fill-rule="evenodd" clip-rule="evenodd" fill="#4F5051" width="22.3" height="23.9"/>
				</g>
			</g>
		</g>
		<g clip-path="url(#SVGID_2_)">
			<defs>
				<rect id="SVGID_15_" x="-70" y="-1588" width="1400" height="1637"/>
			</defs>
			<clipPath id="SVGID_16_">
				<use xlink:href="#SVGID_15_"  overflow="visible"/>
			</clipPath>
			<g clip-path="url(#SVGID_16_)">
				<defs>
					<polyline id="SVGID_17_" points="43.4,5.9 43.4,8.3 37.4,16.9 43.7,16.9 42.8,19.3 32.8,19.3 32.8,17.1 39.2,8.4 33.4,8.4 
						33.4,5.9 43.4,5.9 					"/>
				</defs>
				<clipPath id="SVGID_18_">
					<use xlink:href="#SVGID_17_"  overflow="visible"/>
				</clipPath>
				<g clip-path="url(#SVGID_18_)">
					<defs>
						<rect id="SVGID_19_" x="0" width="78" height="20"/>
					</defs>
					<clipPath id="SVGID_20_">
						<use xlink:href="#SVGID_19_"  overflow="visible"/>
					</clipPath>
					
						<rect x="27.8" y="0.9" clip-path="url(#SVGID_20_)" fill-rule="evenodd" clip-rule="evenodd" fill="#4F5051" width="20.8" height="23.3"/>
				</g>
			</g>
		</g>
		<g clip-path="url(#SVGID_2_)">
			<defs>
				<rect id="SVGID_21_" x="-70" y="-1588" width="1400" height="1637"/>
			</defs>
			<clipPath id="SVGID_22_">
				<use xlink:href="#SVGID_21_"  overflow="visible"/>
			</clipPath>
			<g clip-path="url(#SVGID_22_)">
				<defs>
					<path id="SVGID_23_" d="M49,5.6v13.6h-3.5V6.2L49,5.6z M49.4,2.3c0,1.2-1,2.2-2.2,2.2c-1.2,0-2.2-1-2.2-2.2
						c0-1.2,1-2.2,2.2-2.2C48.5,0.1,49.4,1.1,49.4,2.3z"/>
				</defs>
				<clipPath id="SVGID_24_">
					<use xlink:href="#SVGID_23_"  overflow="visible"/>
				</clipPath>
				<g clip-path="url(#SVGID_24_)">
					<defs>
						<rect id="SVGID_25_" x="0" width="78" height="20"/>
					</defs>
					<clipPath id="SVGID_26_">
						<use xlink:href="#SVGID_25_"  overflow="visible"/>
					</clipPath>
					
						<rect x="40.1" y="-4.9" clip-path="url(#SVGID_26_)" fill-rule="evenodd" clip-rule="evenodd" fill="#4F5051" width="14.4" height="29.2"/>
				</g>
			</g>
		</g>
		<g clip-path="url(#SVGID_2_)">
			<defs>
				<rect id="SVGID_27_" x="-70" y="-1588" width="1400" height="1637"/>
			</defs>
			<clipPath id="SVGID_28_">
				<use xlink:href="#SVGID_27_"  overflow="visible"/>
			</clipPath>
			<g clip-path="url(#SVGID_28_)">
				<defs>
					<path id="SVGID_29_" d="M55.5,3.5v10.4c0,2.3,0,2.6,0.2,3c0.1,0.2,0.4,0.4,0.7,0.4c0.1,0,0.2,0,0.4,0l0.6,2.1
						c-0.6,0.2-1.3,0.4-2.1,0.4c-1.5,0-2.7-0.7-3.2-1.8c-0.3-0.7-0.3-1.1-0.3-3v-10c0-1.7,0-2.8-0.2-4L55.3,0
						C55.4,0.7,55.5,1.6,55.5,3.5"/>
				</defs>
				<clipPath id="SVGID_30_">
					<use xlink:href="#SVGID_29_"  overflow="visible"/>
				</clipPath>
				<g clip-path="url(#SVGID_30_)">
					<defs>
						<rect id="SVGID_31_" x="0" width="78" height="20"/>
					</defs>
					<clipPath id="SVGID_32_">
						<use xlink:href="#SVGID_31_"  overflow="visible"/>
					</clipPath>
					
						<rect x="46.7" y="-5" clip-path="url(#SVGID_32_)" fill-rule="evenodd" clip-rule="evenodd" fill="#4F5051" width="15.8" height="29.6"/>
				</g>
			</g>
		</g>
		<g clip-path="url(#SVGID_2_)">
			<defs>
				<rect id="SVGID_33_" x="-70" y="-1588" width="1400" height="1637"/>
			</defs>
			<clipPath id="SVGID_34_">
				<use xlink:href="#SVGID_33_"  overflow="visible"/>
			</clipPath>
			<g clip-path="url(#SVGID_34_)">
				<defs>
					<path id="SVGID_35_" d="M62.8,3.5v10.4c0,2.3,0,2.6,0.2,3c0.1,0.2,0.4,0.4,0.7,0.4c0.1,0,0.2,0,0.4,0l0.6,2.1
						c-0.6,0.2-1.3,0.4-2.1,0.4c-1.5,0-2.7-0.7-3.2-1.8c-0.3-0.7-0.3-1.1-0.3-3v-10c0-1.7-0.1-2.8-0.2-4L62.6,0
						C62.8,0.7,62.8,1.6,62.8,3.5"/>
				</defs>
				<clipPath id="SVGID_36_">
					<use xlink:href="#SVGID_35_"  overflow="visible"/>
				</clipPath>
				<g clip-path="url(#SVGID_36_)">
					<defs>
						<rect id="SVGID_37_" x="0" width="78" height="20"/>
					</defs>
					<clipPath id="SVGID_38_">
						<use xlink:href="#SVGID_37_"  overflow="visible"/>
					</clipPath>
					
						<rect x="54" y="-5" clip-path="url(#SVGID_38_)" fill-rule="evenodd" clip-rule="evenodd" fill="#4F5051" width="15.8" height="29.6"/>
				</g>
			</g>
		</g>
		<g clip-path="url(#SVGID_2_)">
			<defs>
				<rect id="SVGID_39_" x="-70" y="-1588" width="1400" height="1637"/>
			</defs>
			<clipPath id="SVGID_40_">
				<use xlink:href="#SVGID_39_"  overflow="visible"/>
			</clipPath>
			<g clip-path="url(#SVGID_40_)">
				<defs>
					<path id="SVGID_41_" d="M73,13.4c-2.5,0-3.3,0.4-3.3,2c0,1,0.7,1.7,1.6,1.7c0.7,0,1.3-0.3,1.9-0.9l0.1-2.9H73z M68.4,6.4
						c1.3-0.5,2.5-0.8,3.7-0.8c2.3,0,3.8,0.8,4.4,2.3c0.2,0.5,0.3,1,0.2,2.4l-0.1,4.5v0.2c0,1.4,0.2,2,1.3,2.7L76,20
						c-0.8-0.3-1.6-0.9-1.9-1.6c-0.3,0.3-0.6,0.5-0.8,0.7c-0.7,0.5-1.6,0.7-2.7,0.7c-3,0-4.7-1.5-4.7-4.2c0-3.1,2.2-4.6,6.5-4.6
						c0.3,0,0.5,0,0.8,0v-0.5c0-1.5-0.3-2-1.6-2c-1.1,0-2.5,0.5-3.9,1.5l-1.5-2.5C66.9,7.1,67.4,6.8,68.4,6.4z"/>
				</defs>
				<clipPath id="SVGID_42_">
					<use xlink:href="#SVGID_41_"  overflow="visible"/>
				</clipPath>
				<g clip-path="url(#SVGID_42_)">
					<defs>
						<rect id="SVGID_43_" x="0" width="78" height="20"/>
					</defs>
					<clipPath id="SVGID_44_">
						<use xlink:href="#SVGID_43_"  overflow="visible"/>
					</clipPath>
					
						<rect x="60.9" y="0.7" clip-path="url(#SVGID_44_)" fill-rule="evenodd" clip-rule="evenodd" fill="#4F5051" width="22" height="24.3"/>
				</g>
			</g>
		</g>
	</g>
</g>
</svg>
