<?xml version="1.0" encoding="utf-8"?>
<!-- Generator: Adobe Illustrator 18.0.0, SVG Export Plug-In . SVG Version: 6.00 Build 0)  -->
<!DOCTYPE svg PUBLIC "-//W3C//DTD SVG 1.1//EN" "http://www.w3.org/Graphics/SVG/1.1/DTD/svg11.dtd">
<svg version="1.1" id="Layer_1" xmlns="http://www.w3.org/2000/svg" xmlns:xlink="http://www.w3.org/1999/xlink" x="0px" y="0px"
	 viewBox="0 0 15 14" enable-background="new 0 0 15 14" xml:space="preserve">
<g>
	<path fill="#4CB1FF" d="M10.4,8.4l4.3,3.7c0.4,0.3,0.4,0.9,0.1,1.3l-0.2,0.2c-0.3,0.4-0.9,0.4-1.3,0.1L9,10"/>
</g>
<path fill="#4CB1FF" d="M0,5.7c0-3.1,2.5-5.6,5.6-5.6c3.1,0,5.6,2.5,5.6,5.6c0,3.1-2.5,5.6-5.6,5.6C2.5,11.2,0,8.7,0,5.7z M5.6,9.7
	c2.2,0,4.1-1.8,4.1-4.1c0-2.2-1.8-4.1-4.1-4.1c-2.2,0-4.1,1.8-4.1,4.1C1.6,7.9,3.4,9.7,5.6,9.7z"/>
</svg>
