<?xml version="1.0" encoding="utf-8"?>
<!-- Generator: Adobe Illustrator 18.0.0, SVG Export Plug-In . SVG Version: 6.00 Build 0)  -->
<!DOCTYPE svg PUBLIC "-//W3C//DTD SVG 1.1//EN" "http://www.w3.org/Graphics/SVG/1.1/DTD/svg11.dtd">
<svg version="1.1" id="Layer_1" xmlns="http://www.w3.org/2000/svg" xmlns:xlink="http://www.w3.org/1999/xlink" x="0px" y="0px"
	 viewBox="0 0 40 40" enable-background="new 0 0 40 40" xml:space="preserve">
<path fill="#D3D3D3" d="M20,0C9,0,0,9,0,20c0,5.4,2.1,10.7,5.9,14.5C9.5,38,14.2,40,19.2,40c0.3,0,0.5,0,0.8,0
	c11.2-0.5,20-9.2,20-20C40,9,31,0,20,0z M20,38.1c-0.2,0-0.5,0-0.7,0c-4,0-7.8-1.4-10.8-3.9c0,0,0,0,0-0.1c0-5.1,3-9.4,7.4-10.8
	c1.1,0.6,2.4,0.9,3.7,0.9c1.3,0,2.6-0.3,3.7-0.9c4.6,1.5,7.7,5.9,7.7,10.8C28,36.4,24.2,37.9,20,38.1z M19.6,22.2
	c-3.5,0-6.3-2.8-6.3-6.3s2.8-6.3,6.3-6.3s6.3,2.8,6.3,6.3S23.1,22.2,19.6,22.2z M32.9,32.5c-0.6-4.6-3.5-8.6-7.7-10.5
	c1.6-1.5,2.6-3.6,2.6-6c0-4.5-3.7-8.2-8.2-8.2s-8.2,3.7-8.2,8.2c0,2.4,1,4.5,2.6,6c-4,1.9-6.8,5.8-7.4,10.5c-3-3.3-4.7-7.8-4.7-12.4
	C2,10,10.1,1.9,20,1.9C30,1.9,38.1,10,38.1,20C38.1,24.8,36.1,29.2,32.9,32.5z"/>
</svg>
